<svg xmlns="http://www.w3.org/2000/svg" width="160" height="160" viewBox="0 0 160 160">
    <g fill="none" fill-rule="evenodd">
        <g>
            <g>
                <g>
                    <g>
                        <path d="M0 0L160 0 160 160 0 160z" transform="translate(-740 -264) translate(362 116) translate(318 148) translate(60)"/>
                        <g>
                            <g fill="#597AFA">
                                <path d="M2.393 0c.923.082 1.72.678 2.06 1.54.338.863.16 1.843-.46 2.531C2.665 5.342-.161 4.314.007 2.18.128.984 1.107.058 2.307.001L2.393 0zm-.052.59c-1.516.029-2.5 2.63-.666 3.4.665.285 1.436.138 1.95-.372.512-.51.663-1.282.38-1.948-.282-.666-.94-1.093-1.664-1.08z" transform="translate(-740 -264) translate(362 116) translate(318 148) translate(60) translate(2 28.478) translate(1 11.452)"/>
                            </g>
                            <g fill="#F37B90">
                                <path d="M2.392 0c1.8.034 3.125 2.619 1.6 4.072-1.376 1.31-4.386.123-3.95-2.156C.266.797 1.252-.006 2.392 0zM2.34.59C1.73.63 1.18.971.875 1.5.569 2.03.546 2.675.815 3.224c.754 1.35 3.622.979 3.3-1.133-.154-.862-.9-1.492-1.775-1.5V.59z" transform="translate(-740 -264) translate(362 116) translate(318 148) translate(60) translate(2 28.478) translate(149.341 3.26)"/>
                            </g>
                            <g fill="#597AFA" fill-rule="nonzero" transform="translate(-740 -264) translate(362 116) translate(318 148) translate(60) translate(2 28.478) translate(1.949 114.847)">
                                <circle cx="1.415" cy="1.415" r="1.415"/>
                            </g>
                            <g>
                                <path d="M2.722 0c1.485.028 2.419 2.533.644 3.285-.629.266-1.355.132-1.848-.34-.493-.472-.658-1.192-.42-1.832.238-.64.833-1.076 1.515-1.111L2.722 0zm-.036.59c-.988.019-1.513 1.689-.422 2.151.984.417 2.235-1.328.969-2.016C3.066.635 2.879.589 2.69.59h-.004z" transform="translate(-740 -264) translate(362 116) translate(318 148) translate(60) translate(2 28.478) translate(.659 114.552)"/>
                            </g>
                            <g fill="#597AFA" fill-rule="nonzero" transform="translate(-740 -264) translate(362 116) translate(318 148) translate(60) translate(2 28.478) translate(146.845 73.58)">
                                <circle cx="1.415" cy="1.415" r="1.415"/>
                            </g>
                            <g>
                                <path d="M2.723 0c.933.03 1.67.802 1.654 1.735-.015.933-.775 1.682-1.708 1.682-.934 0-1.694-.749-1.71-1.682C.946.802 1.682.03 2.615 0h.109zm-.036.59c-.493.056-.895.423-.997.909-.1.486.121.982.551 1.231.982.444 2.284-1.3.994-2.005C3.068.635 2.88.589 2.69.59h-.003z" transform="translate(-740 -264) translate(362 116) translate(318 148) translate(60) translate(2 28.478) translate(145.556 73.285)"/>
                            </g>
                            <g fill="#E1E6FF">
                                <path d="M17.161 0c-.37 0-.738.052-1.093.156L.001 4.843h121.8L106.318.167c-.365-.11-.745-.166-1.126-.166L17.161 0z" transform="translate(-740 -264) translate(362 116) translate(318 148) translate(60) translate(2 28.478) translate(17.908 54.575)"/>
                            </g>
                            <g fill="#B3BFED">
                                <path d="M105.362.208c.372.004.742.059 1.1.162l.037.011 15.484 4.676.107.133-.09.144-.062.012H.138l-.135-.1.043-.164.053-.028C5.476 3.485 10.833 1.854 16.23.348c.324-.087.658-.135.994-.142 29.374-.389 58.758-.138 88.138.002zM17.294.503c-.356.002-.71.052-1.051.15l-15.07 4.4h119.764c-4.861-1.469-9.709-3-14.594-4.407-.309-.086-.627-.133-.947-.14C76.032.101 46.659.503 17.293.503h.001z" transform="translate(-740 -264) translate(362 116) translate(318 148) translate(60) translate(2 28.478) translate(17.773 54.22)"/>
                            </g>
                            <g fill="#FFF">
                                <path d="M121.909.183L0 0v58.449c0 1.35.537 2.646 1.492 3.601.955.955 2.251 1.491 3.602 1.491h111.72c1.353 0 2.65-.537 3.606-1.494.957-.956 1.494-2.253 1.494-3.606L121.909.183z" transform="translate(-740 -264) translate(362 116) translate(318 148) translate(60) translate(2 28.478) translate(17.893 59.418)"/>
                            </g>
                            <g fill="#597AFA">
                                <path d="M122.055.183c.076.011.135.071.145.147v58.263c-.07 2.84-2.338 5.136-5.177 5.243-37.262.228-74.524 0-111.788 0C2.344 63.835 0 61.491 0 58.6V.148L.09.012.146 0l121.909.183zM.293 58.6c.07 2.676 2.206 4.838 4.881 4.94 37.261.239 74.523 0 111.785 0 2.706-.062 4.886-2.242 4.948-4.948V.477L.3.3C.294 19.73.293 39.164.293 58.6z" transform="translate(-740 -264) translate(362 116) translate(318 148) translate(60) translate(2 28.478) translate(17.746 59.27)"/>
                            </g>
                            <g fill="#DEE4FF">
                                <path d="M31.419 1.443C31.419.646 30.773 0 29.976 0H1.443C.646 0 0 .646 0 1.443v9.875c0 .797.646 1.443 1.443 1.443h28.533c.797 0 1.443-.646 1.443-1.443V1.443z" transform="translate(-740 -264) translate(362 116) translate(318 148) translate(60) translate(2 28.478) translate(92.659 103.489)"/>
                            </g>
                            <g fill="#F9FAFF">
                                <path d="M30.17.047c.85.04 1.53.72 1.57 1.57.035 3.312.035 6.624 0 9.937-.048.835-.714 1.502-1.549 1.55-9.533.184-19.072.184-28.615 0-.842-.048-1.512-.726-1.55-1.569-.035-3.312-.035-6.624 0-9.937C.074.756.752.086 1.595.048 11.12-.016 20.645-.016 30.17.047zM1.617.341C.917.363.351.919.317 1.619c-.035 3.309-.035 6.618 0 9.928.04.685.592 1.23 1.278 1.261 9.528.063 19.057.183 28.583 0 .686-.04 1.23-.591 1.262-1.277.035-3.309.035-6.618 0-9.928-.04-.685-.592-1.23-1.278-1.261C20.65.279 11.133.341 1.617.341z" transform="translate(-740 -264) translate(362 116) translate(318 148) translate(60) translate(2 28.478) translate(92.477 103.294)"/>
                            </g>
                            <g fill="#E1E6FF">
                                <path d="M14.23.041c.532.027.958.453.985.985.017 1.988.017 3.976 0 5.964-.031.53-.454.954-.985.985-4.406.055-8.813.055-13.22 0-.53-.03-.954-.454-.985-.985-.033-1.988-.033-3.976 0-5.964.031-.53.454-.954.985-.985 4.407-.055 8.813-.055 13.22 0zm-13.193.3c-.384.012-.696.316-.717.7-.033 1.983-.033 3.967 0 5.95.02.378.322.68.7.7 4.4.055 8.8.055 13.2 0 .378-.02.68-.322.7-.7.017-1.983.017-3.967 0-5.95-.02-.378-.322-.68-.7-.7C9.828.281 5.432.336 1.037.336v.005z" transform="translate(-740 -264) translate(362 116) translate(318 148) translate(60) translate(2 28.478) translate(109.218 69.023)"/>
                            </g>
                            <g fill="#F7F8FF" fill-opacity=".6">
                                <path d="M56.854 0.174L0.292 0 18.862 7.128 56.854 7.3z" transform="translate(-740 -264) translate(362 116) translate(318 148) translate(60) translate(2 28.478) rotate(-90 92.958 23.49)"/>
                            </g>
                            <g>
                                <path d="M48.134 8.624c-.013.243-.116.472-.29.642-.23.247-.55.39-.888.4l-30.128-.178c-.176-.001-.349-.042-.507-.118L1.594 2.243c-.463-.262-.7-.797-.58-1.316C1.135.41 1.583.031 2.114 0l44.854.173c.635.038 1.141.546 1.176 1.181v7.127l-.009.143zm-1.172-7.27L2.108 1.18l14.727 7.128 30.128.173-.001-7.127z" transform="translate(-740 -264) translate(362 116) translate(318 148) translate(60) translate(2 28.478) rotate(-90 87.425 19.131)"/>
                            </g>
                            <g fill="#DAE9F4" fill-rule="nonzero">
                                <path d="M11.589 1.388h-9.9c-.383 0-.694-.31-.694-.694 0-.383.31-.694.694-.694h9.9c.383 0 .694.31.694.694 0 .383-.31.694-.694.694z" transform="translate(-740 -264) translate(362 116) translate(318 148) translate(60) translate(2 28.478) translate(23.381 83.184)"/>
                            </g>
                            <g fill="#DAE9F4" fill-rule="nonzero">
                                <path d="M29.539 1.388H.693c-.383 0-.694-.31-.694-.694C-.001.311.309 0 .693 0h28.846c.383 0 .694.31.694.694 0 .383-.31.694-.694.694z" transform="translate(-740 -264) translate(362 116) translate(318 148) translate(60) translate(2 28.478) translate(24.102 88.334)"/>
                            </g>
                            <g fill="#DAE9F4" fill-rule="nonzero">
                                <path d="M24.593 1.387H.693c-.383 0-.694-.31-.694-.694 0-.383.31-.694.694-.694h23.9c.383 0 .694.31.694.694 0 .383-.31.694-.694.694z" transform="translate(-740 -264) translate(362 116) translate(318 148) translate(60) translate(2 28.478) translate(24.182 93.483)"/>
                            </g>
                            <g fill-rule="nonzero">
                                <g fill="#63E299">
                                    <path d="M8.758 5.349c-.546 1.524-1.957 2.568-3.573 2.646-1.617.078-3.121-.827-3.811-2.29-.69-1.465-.43-3.2.66-4.398C3.124.11 4.827-.313 6.35.237c2.075.749 3.152 3.036 2.408 5.112z" transform="translate(-740 -264) translate(362 116) translate(318 148) translate(60) translate(2 28.478) translate(24.351 69.21)"/>
                                </g>
                                <g fill="#FFF">
                                    <path d="M1.092 1.516l1.4 1.432c.076.096.19.154.312.16.122.005.24-.042.325-.13L5.54.718c.163-.169.157-.438-.011-.6-.17-.163-.438-.158-.601.011l-2.074 1.91-1.1-1.052c-.092-.127-.245-.193-.4-.172-.156.02-.287.124-.342.27-.055.147-.026.312.077.43l.003.001z" transform="translate(-740 -264) translate(362 116) translate(318 148) translate(60) translate(2 28.478) translate(24.351 69.21) translate(1.648 2.624)"/>
                                </g>
                            </g>
                            <g fill="#EEF0FF" fill-rule="nonzero">
                                <path d="M1 0L1.59 0 1.59 56.893 1 56.893z" transform="translate(-740 -264) translate(362 116) translate(318 148) translate(60) translate(2 28.478) translate(68.438 59.596)"/>
                            </g>
                            <g fill="#EEF0FF" fill-rule="nonzero">
                                <path d="M1 0L1.59 0 1.59 36.429 1 36.429z" transform="translate(-740 -264) translate(362 116) translate(318 148) translate(60) translate(2 28.478) translate(75.234 59.594)"/>
                            </g>
                            <g fill="#C5CAE0">
                                <path d="M14.85 55.822c.743.314-.109.816-.612 1.325-.322.326-.8 0-.168-.678.2-.222.477-.549.477-.549.052-.04.069-.126.303-.098zm1.93-2.969c.475.242-.056.863-.4 1.449 0 0-.977.527-.368-.54.173-.306.408-.763.408-.763.077-.123.224-.182.365-.147l-.005.001zm1.313-3.277c.49.164.087.816-.142 1.419-.011.12-.093.223-.209.259-.231.083-.556.1-.261-.684l.318-.873c.151-.16.211-.126.3-.122l-.006.001zm.974-3.4c.375.2.193.307.139.563l-.147.647c-.141.588-.824.9-.576-.137l.222-.935c.078-.123.227-.18.367-.143l-.005.005zm.512-3.507c.557.229.191 1.441.012 1.65-.019.021-.04.04-.064.056-.246.161-.476-.061-.381-.861.035-.284.088-.67.088-.67.063-.131.206-.205.35-.18l-.005.005zm.222-3.518c.276.176.174.14.173.512 0 .4-.016.946-.016.946-.124.71-.6.249-.583-.277l.02-.995c.024-.084.083-.153.162-.19.079-.036.17-.037.249-.001l-.005.005zm-7.935-.4c.436.029 1.081.049 1.081.049.347.058.629.611-.271.583-.246-.008-.488-.019-.729-.036-.397-.029-.778-.652-.076-.6l-.005.004zm4.655-.13c.148.046.174.091.2.136.111.182.231.4-.495.482-.375.042-.908.086-.908.086-.155-.01-.193-.047-.231-.085-.186-.183-.185-.47.472-.527.359-.033.873-.094.873-.094l.089.002zM8.35 38.18l.225.058c.366.089.906.2.906.2.218.075.21.138.233.219.1.432-.8.282-1.5.1-.115-.03-.202-.122-.227-.238-.031-.164.016-.374.363-.339zm11.682-.26c.139.066.162.114.182.163.175.386-.61.53-1.33.7 0 0-.281.019-.358-.179-.135-.358.714-.505 1.339-.682.055-.007.112-.007.167.002v-.004zM5.05 36.899c.38.158.752.338 1.113.538.131.081.148.131.165.182.076.247-.071.511-.649.247-.343-.159-.836-.422-.836-.422-.406-.307-.122-.571.207-.545zm18.311-.23c.5.3.047.526-.26.673-.2.1-.413.192-.622.283-.434.187-1.068-.172-.03-.631.392-.177.83-.345.83-.345l.082.02zm-3.8-1.067c.389.187.277.833.322 1.423-.002.115-.057.222-.149.291-.358.2-.465-.656-.554-1.393-.006-.002.021-.38.375-.322l.006.001zM2.345 34.68c.341.167.576.6.917.917 0 0 .191.283-.01.448-.3.246-.78-.363-1.194-.86.001.004-.289-.605.287-.505zm23.95.021c.42.259.1.476-.148.692-.278.239-.709.562-.709.562-.313.165-.846-.092-.136-.636.32-.247.75-.613.75-.613.089-.026.042-.058.243-.002v-.003zm-7.437-2.588c.4.131.385.8.507 1.36 0 0 .015.284-.184.356-.37.136-.465-.618-.651-1.317 0 .002-.051-.407.328-.397v-.002zm9.6-.2c.436.268-.082.784-.458 1.363 0 0-.458.394-.573-.014-.1-.342.367-.751.657-1.221.08-.119.23-.17.366-.126l.008-.002zm-27.8-.353c.219.066.267.456.633 1.279 0 0 .056.264-.113.37-.344.216-.638-.568-.841-1.25-.002.001-.055-.4.319-.398l.002-.001zm17.043-2.769c.19.085.431.691.638 1.219 0 0-.189 1.1-.633 0-.139-.342-.354-.815-.354-.815-.115-.368.151-.43.346-.403l.003-.001zm12.472.029c.458.24-.02.773-.373 1.421 0 0-.772.382-.539-.242l.231-.426c.153-.288.371-.679.371-.679.167-.133.219-.091.307-.073l.003-.001zm-29.7-.756c.373.173.126.806.116 1.441 0 0-.632.882-.585-.249.024-.576-.095-1.276.468-1.191l.001-.001zm15.4-2.283c.252.128.223.2.3.3.237.308.549.768.549.768.046.072.06.16.037.242-.093.335-.447.121-1.186-.82-.007.004-.265-.591.295-.491l.005.001zm15.851-.143c.478.223 0 .807-.283 1.391-.012.124-.107.225-.23.243-.11.022-.223-.018-.295-.104-.071-.086-.09-.205-.048-.309l.237-.5.268-.566c.071-.12.21-.181.346-.154l.005-.001zm-29.992-.85c.72.232.012.646-.375 1.442-.063.092-.162.152-.272.166-.494-.013.095-1.283.41-1.544.063-.057.15-.08.233-.063l.004-.001zm11.565-1.42c.526.26 1.138.695 1.139.993 0 .384-.359.244-1.4-.469-.002.001-.344-.628.256-.523l.005-.001zm19.864-.964c.4.173.065.7-.129 1.145l-.149.341c-.124.2-.182.174-.267.176-.098-.004-.188-.056-.242-.138-.054-.082-.065-.185-.03-.277l.271-.617c.1-.231.244-.534.244-.534.156-.145.211-.106.298-.095l.004-.001zm-28.778.039c.137.075.153.124.174.174.07.2.159.135-.642.663-.45.3-.7.546-.88.229-.2-.353.554-.747 1.092-1.044-.005.002.023-.071.251-.02l.005-.002zm5.7-.566c.462.125 1.1.367 1.1.367.467.186.359.751-.561.421-.273-.1-.69-.218-.69-.218-.141-.062-.164-.109-.187-.157-.095-.179-.041-.457.334-.41l.004-.003zm-2.33-.312c.212.094.2.156.213.238.062.415-.846.348-1.4.437 0 0-.283.007-.351-.2-.131-.406.709-.478 1.432-.49.003.006.058.011.103.017l.003-.002zm26.773-2.43c.583.24-.116 1.454-.354 1.62-.024.016-.05.03-.077.038-.2.068-.451-.054-.363-.394.234-.566.492-1.162.492-1.162.04-.039.057-.124.299-.099l.003-.003zm1.34-3.278c.476.212.261.223.045.738-.148.366-.3.748-.3.748-.159.275-.659.247-.549-.22.185-.453.453-1.1.453-1.1.07-.123.21-.189.349-.163l.002-.003zm1.7-3.114c.46.271-.107.844-.441 1.44-.05.107-.165.168-.282.151-.575-.045.193-1.541.556-1.608.054-.004.109.003.16.02l.007-.003zm1.823-3.015c.72.229-.018.765-.451 1.438 0 0-.045.167-.289.132-.4-.057.009-.791.4-1.374-.008.003-.015-.2.333-.193l.007-.003zm32.952-1.881s.44.34.894.716c.128.042.21.166.2.3-.007.112-.073.211-.174.26-.101.048-.22.038-.312-.027l-.967-.808c-.182-.36.005-.529.352-.438l.007-.003zm-30.813-.955c.45.2-.172.842-.573 1.367 0 0-1.046.384-.295-.582.221-.284.561-.692.561-.692.039-.038.06-.122.3-.09l.007-.003zm27.979-1.2s.557.381 1.03.733c0 0 .392 1.025-.608.283-.286-.21-.688-.5-.688-.5-.375-.343-.061-.574.26-.512l.006-.004zM44.123 4.507c.512.19.159.491-.045.646l-.2.155c-.264.208-.621.494-.621.494-.331.093-.671-.2-.05-.712.17-.137.34-.27.51-.4.099-.118.246-.184.4-.179l.006-.004zm22.366-.721l1.108.631c.637.527-.173.58-.73.251-.276-.162-.653-.387-.653-.387-.246-.321-.089-.519.269-.491l.006-.004zM47.2 2.686c.634.4-.191.61-.97 1.043-.088.054-.194.071-.295.05-.23-.082-.5-.29.227-.686.315-.171.791-.4.791-.4.086-.026.036-.057.24-.002l.007-.005zm16.109-.364c.425.072.83.237 1.184.483.263.215.078.65-.7.334l-.758-.3c-.369-.353-.055-.579.267-.512l.007-.005zm-12.8-.819c.136.071.156.12.176.17.135.338-.683.506-1.305.7 0 0-1.06-.3.067-.637.445-.131.981-.248.981-.248l.081.015zm9.333-.109c.475.087 1.171.245 1.171.245.676.267.125.632-.4.511-.4-.087-.952-.2-.952-.2-.426-.288-.152-.563.176-.55l.005-.006zm-5.86-.392c.648.258.11.572-.212.59-.452.028-1.086.08-1.086.08-.319-.107-.46-.543.379-.62.339-.031.836-.059.836-.059l.083.009zm2.419 0c.442.024 1.076.077 1.076.077.349.083.643.643-.387.559l-.915-.068c-.136-.071-.156-.12-.176-.17-.079-.185-.049-.42.398-.394l.004-.004z" transform="translate(-740 -264) translate(362 116) translate(318 148) translate(60) translate(2 28.478) translate(31.849)"/>
                            </g>
                            <g fill="#597AFA" fill-rule="nonzero">
                                <path d="M15.842 14.169c.108-.143.12-.336.032-.492L8.194.226c-.088-.153-.258-.24-.434-.222-.176.018-.325.138-.38.306l-1.943 6L.199 9.816c-.142.096-.218.264-.194.434v.016c.03.174.161.314.333.357l15.038 3.715c.175.043.359-.024.466-.169zm-14.3-4.177L5.803 7.14l7.677 5.8L1.542 9.992z" transform="translate(-740 -264) translate(362 116) translate(318 148) translate(60) translate(2 28.478) translate(96.66 3.517)"/>
                            </g>
                        </g>
                    </g>
                </g>
            </g>
        </g>
    </g>
</svg>
